<svg xmlns="http://www.w3.org/2000/svg" viewBox="0 0 416 512"><defs><style>.cls-1{fill:#8cc63f;}</style></defs><title>Asset 2</title><g id="Layer_2" data-name="Layer 2"><g id="Layer_1-2" data-name="Layer 1"><path class="cls-1" d="M137,512c-.78-1.58-2.47-1.48-3.8-2A32.24,32.24,0,0,1,112,479.59q-.12-38.24,0-76.47c0-3.67-.66-5-4.78-5.24-15.2-.83-27.29-14-27.36-29.72-.13-30.49,0-61,0-91.47,0-37.15.07-74.31-.09-111.46,0-4.12,1-5.24,5.2-5.24q123,.19,245.92,0c4.13,0,5.24,1,5.23,5.2q-.2,100.72-.11,201.43c0,17.65-11.4,30.18-28.82,31.36-3.78.26-3.28,2.27-3.27,4.58q0,37,0,74c0,18.5-7.62,28.91-25.38,34.75-.25.08-.39.48-.58.73H265c-.26-1-1.18-1-1.92-1.33-16.16-6.31-23.08-16.49-23.08-34,0-24.63-.07-49.26.08-73.89,0-3.58-.68-4.86-4.59-4.81q-27.45.33-54.91,0c-3.81,0-4.68,1.07-4.65,4.75.16,25.46.11,50.92.07,76.38,0,15.53-9.39,27.69-24.44,31.87-.65.18-1.29.25-1.55,1Z"/><path class="cls-1" d="M307,0c6.91,5.67,7.06,9.46.6,15.93-6.94,7-13.73,14.08-20.93,20.77-3.26,3-2.69,4.41.51,7,30.38,24.41,46.53,56.18,48.9,95.08.27,4.39-.86,5.53-5.35,5.52q-122.7-.22-245.39,0c-4.33,0-5.71-.89-5.43-5.44Q83.53,80.78,128.48,44c3.52-2.87,4.13-4.34.57-7.66-6.94-6.46-13.42-13.44-20.07-20.21-6.43-6.54-6.42-9.77,0-16.17h6c9.65,9.59,19.37,19.12,28.91,28.82,2.2,2.24,3.88,2.59,6.82,1.14Q208,1.82,265.3,30c3,1.47,4.63,1,6.81-1.2C281.65,19.1,291.35,9.58,301,0ZM272.07,80.08a16,16,0,1,0-32.07.35,16,16,0,0,0,32.07-.35Zm-112.34,16A16,16,0,0,0,176,80.6a15.91,15.91,0,1,0-31.81-.68A15.84,15.84,0,0,0,159.73,96.09Z"/><path class="cls-1" d="M0,185c1.56-.81,1.42-2.53,1.94-3.84,5.74-14.46,20.68-23.27,35-20.58,16,3,26.94,15.71,27,31.86q.15,55.49,0,111a32.41,32.41,0,0,1-27.13,32.35c-14.63,2.46-29.31-6.54-35-21.39-.45-1.16-.29-2.73-1.77-3.37Z"/><path class="cls-1" d="M416,311c-1.63,1-1.53,2.82-2.11,4.31-5.5,14.14-20.39,22.92-34.67,20.42-15.51-2.72-27.1-15.76-27.16-31.3q-.23-56.49,0-113c.06-15.6,11.72-28.26,28-31,14.07-2.38,28.93,6.87,34.22,21.14.55,1.47.1,3.4,1.76,4.43Z"/></g></g></svg>