<svg xmlns="http://www.w3.org/2000/svg" viewBox="0 0 304.34 361.26"><defs><style>.cls-1{fill:#4d4d4d;}</style></defs><title>Asset 1</title><g id="Layer_2" data-name="Layer 2"><g id="Layer_1-2" data-name="Layer 1"><path class="cls-1" d="M304.34,264.65v.74a6.46,6.46,0,0,0-.61,1.08c-7.68,22.85-19.45,43.44-34.27,62.37-6.36,8.12-12.93,16-21.29,22.25-10.47,7.77-22,11.27-35.11,9a106.06,106.06,0,0,1-22.74-6.93c-19.16-7.94-38.5-8.61-58-1.51-6.36,2.31-12.68,4.76-19.14,6.77-4.14,1.29-8.5,1.89-12.76,2.8H93.71a3.81,3.81,0,0,0-.84-.3,37.94,37.94,0,0,1-13.65-4.37c-8.92-4.73-16.1-11.57-22.67-19.07A227,227,0,0,1,4.35,234c-4.77-22.22-6-44.58-1.66-67,3.76-19.22,11.75-36.47,25.08-50.92C44,98.45,64.17,88.6,88.12,86.67c10.74-.87,21,1.6,31,4.92,8.59,2.83,17.14,5.81,25.67,8.85a26.37,26.37,0,0,0,18.92,0c7.37-2.79,14.9-5.15,22.34-7.75a135,135,0,0,1,25.57-6.5c10.93-1.55,21.66-.16,32.29,2.26,17.21,3.93,32.18,11.9,44.13,25.09,2.3,2.54,4.38,5.29,6.69,8.1l-2.24,1.46A88.09,88.09,0,0,0,270.78,142c-15.74,19.48-19.24,41.8-14.68,65.76,3.12,16.36,11.49,29.87,23.7,41.08A79.37,79.37,0,0,0,304.34,264.65Z"/><path class="cls-1" d="M228,0c0,4.74.32,9.31-.05,13.82-2.66,32-28.69,57.93-48.06,66.58a55.55,55.55,0,0,1-25.5,5.08c-.43,0-.86,0-1.29-.09a1.8,1.8,0,0,1-.43-.21,54,54,0,0,1,1.25-21c7.06-27.32,23.52-46.71,49.45-58a72.11,72.11,0,0,1,22.58-6Z"/></g></g></svg>